<svg xml:space="preserve" style="enable-background:new 0 0 1024 1024;" viewBox="0 0 1024 1024" y="0px" x="0px" xmlns:xlink="http://www.w3.org/1999/xlink" xmlns="http://www.w3.org/2000/svg" id="图层_1" version="1.1">
<style type="text/css">
	.st0{fill-rule:evenodd;clip-rule:evenodd;fill:#D6EAFF;}
	.st1{fill-rule:evenodd;clip-rule:evenodd;fill:#B3D8FF;}
	.st2{fill-rule:evenodd;clip-rule:evenodd;fill:#72B3F3;}
	.st3{fill-rule:evenodd;clip-rule:evenodd;fill:#4399EF;}
	.st4{fill-rule:evenodd;clip-rule:evenodd;fill:#99CBFF;}
	.st5{fill-rule:evenodd;clip-rule:evenodd;fill:url(#SVGID_1_);}
	.st6{fill-rule:evenodd;clip-rule:evenodd;fill:url(#SVGID_2_);}
	.st7{fill-rule:evenodd;clip-rule:evenodd;fill:url(#SVGID_3_);}
	.st8{fill-rule:evenodd;clip-rule:evenodd;fill:url(#SVGID_4_);}
	.st9{fill-rule:evenodd;clip-rule:evenodd;fill:url(#SVGID_5_);}
	.st10{fill-rule:evenodd;clip-rule:evenodd;fill:url(#SVGID_6_);}
	.st11{fill-rule:evenodd;clip-rule:evenodd;fill:url(#Phone1_1_);}
	.st12{fill-rule:evenodd;clip-rule:evenodd;fill:url(#Screen_1_);}
	.st13{fill-rule:evenodd;clip-rule:evenodd;fill:url(#Road_1_);}
	.st14{fill-rule:evenodd;clip-rule:evenodd;fill:url(#SVGID_7_);}
	.st15{fill:url(#SVGID_8_);}
	.st16{fill-rule:evenodd;clip-rule:evenodd;fill:url(#SVGID_9_);}
	.st17{fill-rule:evenodd;clip-rule:evenodd;fill:url(#SVGID_10_);}
	.st18{fill-rule:evenodd;clip-rule:evenodd;fill:url(#SVGID_11_);}
	.st19{fill-rule:evenodd;clip-rule:evenodd;fill:url(#SVGID_12_);}
	.st20{fill:url(#SVGID_13_);}
	.st21{fill:url(#SVGID_14_);}
	.st22{fill-rule:evenodd;clip-rule:evenodd;fill:url(#SVGID_15_);}
	.st23{fill-rule:evenodd;clip-rule:evenodd;fill:url(#SVGID_16_);}
	.st24{fill:url(#SVGID_17_);}
	.st25{fill:url(#SVGID_18_);}
	.st26{fill-rule:evenodd;clip-rule:evenodd;fill:#1F4B93;}
	.st27{fill-rule:evenodd;clip-rule:evenodd;fill:url(#Hand-Front_1_);}
</style>
<g id="图层_2_1_">
	<g id="Online_Transportation_Car">
		<g id="Artboard11">
			<path d="M30.6,661.9c-16.4,94.9,21.5,328.9,311,328.9c189.7,0,268.9-126.4,366.5-209.7
				s288.6-107.7,288.6-353.1S765.6,52.6,570.7,97c-196.3,44.7-227.1,151.5-316.1,275S66.9,452.1,30.6,661.9z M729.1,802.5
				c-31.1,22-45.5,69.6-27.6,90.9c24.8,29.4,79.4,15.6,105.2-8.9c33.6-31.9,32.7-71.3,19.1-85.2
				C804.4,777.4,764.4,777.5,729.1,802.5L729.1,802.5z M225.1,360.7c67-80.3,63-155.4,22.6-184.3s-131.5,1.3-176.4,62.2
				s-59.9,136-24,180.5C67.9,444.5,140.3,462.5,225.1,360.7L225.1,360.7z" class="st0" id="Background"></path>
			<path d="M327.9,262.2v53.4H689v-89.2h56.8v-63.7h84v87.5h47.3v-29.7h50.4
				c42.6,54.3,69.2,124.3,69.2,207.5c0,57.9-10.6,103.6-28.2,140.5H56.8c46.5-106.1,125.2-96,197.7-196.5
				C282.4,333.2,304.6,296.2,327.9,262.2L327.9,262.2z M241.7,232.9h35c2.6,35.2-12.3,80.6-51.6,127.8
				C140.2,462.5,68,444.5,47.4,419.1c-36-44.5-20.9-119.6,24-180.5c1.9-2.6,3.9-5.1,6-7.6h32.1v29.9h51.9v-76.9h80.4V232.9z" class="st1" id="Building"></path>
			<path d="M923,634.5H603.2V532c147.1,0,147.1-91,294.2-91c42.7,0,73.1,7.7,98.2,18.6
				C989.8,540.1,961.3,594.2,923,634.5L923,634.5z M185.6,441c142.5,1.9,144,91,289.6,91v102.5H36C65.3,503.6,123.3,486.8,185.6,441
				L185.6,441z" class="st2" id="Bliss"></path>
			<g id="tree-right">
				<path d="M816.2,390.3c-23.2-30.9-16.9-74.7,14-97.9c30.9-23.2,74.7-16.9,97.9,14c18.7,24.9,18.7,59.1,0,84
					c41.2,30.9,49.6,89.3,18.7,130.5c-30.9,41.2-89.3,49.6-130.5,18.7c-41.2-30.9-49.6-89.3-18.7-130.5
					C802.8,401.9,809.1,395.6,816.2,390.3z" class="st3"></path>
				<path d="M872.1,306.8c1.2,0,2.4,0.5,3.3,1.4c0.9,0.9,1.4,2.1,1.4,3.3v126.8l27-27.1c1.8-1.8,4.7-1.9,6.6-0.1
					c0,0,0,0,0.1,0.1l0,0c1.8,1.8,1.8,4.8,0,6.6l-33.6,33.8v212.6h-9.4V529.6l-43.6-44c-1.8-1.8-1.8-4.8,0-6.6c0,0,0,0,0,0l0,0
					c1.8-1.8,4.7-1.9,6.6-0.1c0,0,0,0,0.1,0.1l37,37.2V373.6l-21.8-22.1c-1.8-1.8-1.8-4.8,0-6.7c0,0,0,0,0,0l0,0
					c1.8-1.8,4.7-1.9,6.5-0.1c0,0,0.1,0.1,0.1,0.1l15.2,15.4v-48.8C867.4,308.9,869.5,306.8,872.1,306.8L872.1,306.8L872.1,306.8z" class="st0"></path>
			</g>
			<g id="tree-left">
				<path d="M220.1,412c29.5,42.8,18.7,101.3-24.1,130.8c-15.5,10.6-33.7,16.4-52.5,16.6c-25,0-48.9-10-66.3-27.9
					C115.7,475.5,168,462.6,220.1,412z M57.8,428.3c6.5-15,16.7-28.1,29.7-38c-23.2-30.9-17-74.7,13.9-97.9s74.7-17,97.9,13.9
					c17.2,22.9,18.7,54,3.8,78.4C138.6,448.8,83.8,445.3,57.8,428.3z" class="st3"></path>
				<path d="M148.1,466.7v49.6l37-37.2c1.8-1.8,4.8-1.9,6.6-0.1c0,0,0,0,0.1,0.1l0,0c1.8,1.8,1.8,4.8,0,6.6l-43.6,44
					v162.1h-9.4V473C141.8,470.9,145,468.8,148.1,466.7z M122.6,435.4l-17.4-17.6c-1.8-1.8-1.8-4.8,0-6.7l0,0
					c1.8-1.8,4.7-1.9,6.6-0.1c0,0,0,0,0.1,0.1l20.9,21.1C129.3,433.4,125.9,434.5,122.6,435.4z M138.8,429.9V311.5
					c0-1.2,0.5-2.4,1.4-3.3c0.9-0.9,2.1-1.4,3.3-1.4l0,0c2.6,0,4.7,2.1,4.7,4.7v48.8l15.2-15.4c1.8-1.8,4.7-1.9,6.5-0.1
					c0,0,0.1,0.1,0.1,0.1l0,0c1.8,1.8,1.8,4.8,0,6.7c0,0,0,0,0,0l-21.8,22.1v52C145,427.2,141.8,428.6,138.8,429.9z" class="st0"></path>
			</g>
			<path d="M48.6,589.7c18.6-12.1,43.4-8,57.1,9.4c14.6-18.6,41.5-21.9,60.1-7.2c2.7,2.1,5.1,4.6,7.2,7.2
				c14.6-18.6,41.5-21.9,60.1-7.3c2.7,2.1,5.1,4.6,7.3,7.3c14.6-18.6,41.6-21.9,60.2-7.2c10.4,8.1,16.4,20.6,16.4,33.7l0,0v82.3H29
				v-35.3c0.4-3.7,0.9-7.3,1.5-10.7C34.6,637.4,40.6,613.2,48.6,589.7z M825,707.8H706.8v-82.2v-2.2c1.2-23.7,21.4-41.8,45-40.6
				c12.4,0.6,23.9,6.6,31.5,16.3c14.6-18.6,41.5-21.9,60.1-7.3c2.7,2.1,5.1,4.6,7.3,7.3c14.6-18.6,41.5-21.9,60.1-7.2
				c2.7,2.1,5.1,4.6,7.2,7.2c8.1-10.3,20.5-16.4,33.7-16.4c2.9,0,5.9,0.3,8.8,0.9C927.7,642.5,876.3,677.9,825,707.8L825,707.8z" class="st3" id="Bush"></path>
			<path d="M853.5,690.5c-51.2,32.9-105.9,57-145.4,90.6c-97.6,83.3-176.8,209.7-366.5,209.7
				c-263.7,0-318.7-194-314-300.3H853.5z M729.1,802.5c-31.1,22-45.5,69.6-27.6,90.9c24.8,29.4,79.4,15.6,105.2-8.9
				c33.6-31.9,32.7-71.3,19.1-85.2C804.4,777.4,764.4,777.5,729.1,802.5L729.1,802.5z" class="st4" id="Field"></path>
			<path d="M853.5,690.5c-34.1,22-69.9,39.9-101.6,59.5H31c-3.1-19.7-4.2-39.6-3.4-59.5H853.5z" class="st0" id="Field1"></path>
			<g id="Hand-Back">
				
					<linearGradient gradientTransform="matrix(0 1042.6 -919.69 0 -179457.125 711342.625)" y2="-195.48" x2="-681.3187" y1="-195.48" x1="-681.9578" gradientUnits="userSpaceOnUse" id="SVGID_1_">
					<stop style="stop-color:#FFBEAE" offset="0"></stop>
					<stop style="stop-color:#FFB39F" offset="0.46"></stop>
					<stop style="stop-color:#FF9678" offset="1"></stop>
				</linearGradient>
				<path d="M114.1,914.1l56.5-96.7c5.2-8.9,8.8-18.6,10.7-28.7l53.2-278.7c2.4-12.7,8-24.6,16.3-34.6l128-154.7
					l154.8,377.7c0,0-33.2,120.4-111.3,208.5l-15.5,78.5c-21.5,3.7-43.3,5.5-65.1,5.4C234.9,990.8,162.3,958.9,114.1,914.1z" class="st5"></path>
				
					<linearGradient gradientTransform="matrix(-94.93 144.9 -144.9 -94.93 -92772.6641 80585.0391)" y2="-196.384" x2="-680.6122" y1="-196.384" x1="-681.2319" gradientUnits="userSpaceOnUse" id="SVGID_2_">
					<stop style="stop-color:#FF653F" offset="0"></stop>
					<stop style="stop-color:#FF9A7D" offset="1"></stop>
				</linearGradient>
				<path d="M325.3,606.3l-15.5,15.5c-4.5,4.5-11.7,4.5-16.2,0c-3.1-3.1-4.2-7.7-2.7-11.8l34.4-98L325.3,606.3z" class="st6"></path>
				
					<linearGradient gradientTransform="matrix(-103.18 106.59 -106.59 -103.18 -90264.375 52555.9336)" y2="-196.0944" x2="-678.9846" y1="-196.0944" x1="-679.6044" gradientUnits="userSpaceOnUse" id="SVGID_3_">
					<stop style="stop-color:#FFBEAE" offset="0"></stop>
					<stop style="stop-color:#FFB39F" offset="0.46"></stop>
					<stop style="stop-color:#FF9678" offset="1"></stop>
				</linearGradient>
				<path d="M761.1,393.4c0-18.4-14.9-33.3-33.2-33.3c0,0,0,0,0,0h-36.1v66.5h36.1C746.2,426.7,761.1,411.8,761.1,393.4
					C761.1,393.4,761.1,393.4,761.1,393.4z" class="st7"></path>
				
					<linearGradient gradientTransform="matrix(-103.18 106.59 -106.59 -103.18 -90256.375 52720.1836)" y2="-195.7903" x2="-679.2817" y1="-195.7903" x1="-679.9014" gradientUnits="userSpaceOnUse" id="SVGID_4_">
					<stop style="stop-color:#FFBEAE" offset="0"></stop>
					<stop style="stop-color:#FFB39F" offset="0.46"></stop>
					<stop style="stop-color:#FF9678" offset="1"></stop>
				</linearGradient>
				<path d="M766.1,495.9c0-18.4-14.9-33.3-33.3-33.3l0,0h-36.1v66.5h36.1C751.2,529.2,766.1,514.3,766.1,495.9
					L766.1,495.9L766.1,495.9z" class="st8"></path>
				
					<linearGradient gradientTransform="matrix(-88.57 141.55 -91.49 -137.03 -77355.6562 70151.7344)" y2="-194.889" x2="-679.7094" y1="-195.1602" x1="-680.3292" gradientUnits="userSpaceOnUse" id="SVGID_5_">
					<stop style="stop-color:#FFBEAE" offset="0"></stop>
					<stop style="stop-color:#FFB39F" offset="0.46"></stop>
					<stop style="stop-color:#FF9678" offset="1"></stop>
				</linearGradient>
				<path d="M756.3,631.2c0-17.5-10.9-33.2-27.4-39.2l-32.2-11.8v66.5l24.5,9c13.5,5,28.5-2,33.5-15.5
					C755.7,637.3,756.3,634.2,756.3,631.2L756.3,631.2z" class="st9"></path>
				
					<linearGradient gradientTransform="matrix(110.22 72.4 -72.4 110.22 61506.4453 71524.3828)" y2="-194.5777" x2="-681.1381" y1="-194.5777" x1="-681.7578" gradientUnits="userSpaceOnUse" id="SVGID_6_">
					<stop style="stop-color:#FF653F" offset="0"></stop>
					<stop style="stop-color:#FF9A7D" offset="1"></stop>
				</linearGradient>
				<path d="M523.8,727.8c-5.8,16.1-14.3,37.5-25.7,61.4l-61.4-61.4H523.8z" class="st10"></path>
			</g>
			<g id="Phone">
				
					<linearGradient gradientTransform="matrix(0 1110.48 -429.14 0 -83325.0781 757165.9375)" y2="-195.3791" x2="-681.1751" y1="-195.3791" x1="-681.8142" gradientUnits="userSpaceOnUse" id="Phone1_1_">
					<stop style="stop-color:#396FC6" offset="0"></stop>
					<stop style="stop-color:#1F4B93" offset="1"></stop>
				</linearGradient>
				<path d="M714.6,80c0-25.8-20.9-46.8-46.8-46.8H372c-25.9,0-46.8,21-46.8,46.8v601
					c0,25.8,20.9,46.8,46.8,46.8c0,0,0,0,0,0h295.8c25.8,0,46.8-20.9,46.8-46.8l0,0V80z" class="st11" id="Phone1"></path>
				
					<linearGradient gradientTransform="matrix(0 1003.63 -410.43 0 -79633.2031 684278.6875)" y2="-195.2907" x2="-681.1396" y1="-195.2907" x1="-681.7593" gradientUnits="userSpaceOnUse" id="Screen_1_">
					<stop style="stop-color:#FFFFFF" offset="0"></stop>
					<stop style="stop-color:#CCEEFF" offset="1"></stop>
				</linearGradient>
				<path d="M684.7,647.9c0,12.9-10.5,23.4-23.4,23.4H378.7c-12.9,0-23.4-10.4-23.4-23.4c0,0,0,0,0-0.1
					v-563c0-12.9,10.5-23.4,23.4-23.4c0,0,0,0,0,0h46.6c10.3,0,19.6,6.1,23.7,15.5l0,0c4.1,9.4,13.4,15.5,23.7,15.5h94.5
					c10.3,0,19.6-6.1,23.7-15.5l0,0c4.1-9.4,13.4-15.5,23.7-15.5h46.6c12.9,0,23.4,10.5,23.4,23.4L684.7,647.9L684.7,647.9z" class="st12" id="Screen"></path>
				
					<linearGradient gradientTransform="matrix(0 521.76 -410.43 0 -79633.2031 355507.5312)" y2="-195.2907" x2="-680.6414" y1="-195.2907" x1="-681.2611" gradientUnits="userSpaceOnUse" id="Road_1_">
					<stop style="stop-color:#CCEEFF" offset="0"></stop>
					<stop style="stop-color:#A9CFFF" offset="1"></stop>
				</linearGradient>
				<path d="M630.8,61.4h15.6v57h38.2v15.5h-81.3v45.2l33.1,33l48.3-48.3v22.1l-37.2,37.2l17.4,17.4h19.7
					v15.6H527.7v45.5h156.9v15.6h-46.5v45.5h46.5v15.6H355.3v-15.6h49.5l45.5-45.5h-95.1v-15.6h57.9v-74h-57.9v-15.6h57.9v-78h-57.9
					v-15.6h16.2l56.8-56.8c5.6,0.7,10.9,3.2,15,7.1l-49.7,49.7h83.5V92.6h15.6v25.8h138.2V61.4z M622.5,317.4H472.4l-45.5,45.5
					h100.4v-29.5h15.5V363h79.7L622.5,317.4L622.5,317.4z M512.1,256.3h-83.3v45.5h83.3V256.3z M512.1,190.1h-83.3v50.5h83.3V190.1z
					 M592.3,190.1h-64.6v50.5h115.1L592.3,190.1z M512.1,134h-83.3v40.5h83.3V134z M587.7,134h-60v40.5h60V134z" class="st13" id="Road"></path>
				<g id="Card">
					
						<linearGradient gradientTransform="matrix(0 436.87 -344.48 0 -66747.4141 298140.5625)" y2="-195.2722" x2="-680.9103" y1="-195.2722" x1="-681.53" gradientUnits="userSpaceOnUse" id="SVGID_7_">
						<stop style="stop-color:#FFFFFF" offset="0"></stop>
						<stop style="stop-color:#E6F7FF" offset="1"></stop>
					</linearGradient>
					<path d="M658.2,418.6c0-7-5.7-12.7-12.7-12.7c0,0,0,0-0.1,0h-251c-7,0-12.7,5.7-12.8,12.7c0,0,0,0,0,0.1v252.7
						h276.5V418.6z" class="st14"></path>
					
						<linearGradient gradientTransform="matrix(0 92.93 -59.26 0 -11136.9219 63511.9805)" y2="-195.3358" x2="-678.2267" y1="-195.3358" x1="-678.8465" gradientUnits="userSpaceOnUse" id="SVGID_8_">
						<stop style="stop-color:#FFC44C" offset="0"></stop>
						<stop style="stop-color:#FF8618" offset="1"></stop>
					</linearGradient>
					<circle r="28" cy="456.4" cx="438.7" class="st15"></circle>
					
						<linearGradient gradientTransform="matrix(0 82.68 -82.68 0 -15515.1719 56527.4648)" y2="-194.4527" x2="-677.8385" y1="-194.4527" x1="-678.4582" gradientUnits="userSpaceOnUse" id="SVGID_9_">
						<stop style="stop-color:#CCEEFF" offset="0"></stop>
						<stop style="stop-color:#A9CFFF" offset="1"></stop>
					</linearGradient>
					<path d="M629.2,445c0-3.2-2.6-5.8-5.8-5.8H501c-3.2,0-5.8,2.6-5.8,5.8l0,0c0,3.2,2.6,5.8,5.8,5.8h122.4
						C626.6,450.8,629.2,448.2,629.2,445z" class="st16"></path>
					
						<linearGradient gradientTransform="matrix(0 82.68 -82.68 0 -15515.1719 56527.4648)" y2="-194.262" x2="-677.8385" y1="-194.262" x1="-678.4582" gradientUnits="userSpaceOnUse" id="SVGID_10_">
						<stop style="stop-color:#CCEEFF" offset="0"></stop>
						<stop style="stop-color:#A9CFFF" offset="1"></stop>
					</linearGradient>
					<path d="M597.7,467.8c0-3.2-2.6-5.8-5.8-5.8l0,0H501c-3.2,0-5.8,2.6-5.8,5.8l0,0l0,0c0,3.2,2.6,5.8,5.8,5.8h90.9
						C595.1,473.6,597.7,471,597.7,467.8z" class="st17"></path>
					
						<linearGradient gradientTransform="matrix(0 54.56 -317.04 0 -61290.3477 37624.0547)" y2="-195.1543" x2="-677.8182" y1="-195.1543" x1="-678.438" gradientUnits="userSpaceOnUse" id="SVGID_11_">
						<stop style="stop-color:#B5FC4C" offset="0"></stop>
						<stop style="stop-color:#00BC64" offset="1"></stop>
					</linearGradient>
					<path d="M629.2,626.9c0-9.4-7.6-17-17-17h-61.6c-9.4,0-17,7.6-17,17c0,9.4,7.6,17,17,17h61.6
						C621.6,643.9,629.2,636.3,629.2,626.9z" class="st18"></path>
				</g>
				<g id="Tracker">
					
						<linearGradient gradientTransform="matrix(0 210.33 -202.06 0 -38952.4102 143224.4844)" y2="-195.2906" x2="-679.446" y1="-195.2906" x1="-680.0658" gradientUnits="userSpaceOnUse" id="SVGID_12_">
						<stop style="stop-color:#396FC6" offset="0"></stop>
						<stop style="stop-color:#1F4B93" offset="1"></stop>
					</linearGradient>
					<path d="M524.7,309.6c0,2.6-2.1,4.7-4.7,4.7c0,0,0,0,0,0l0,0c-2.6,0-4.7-2.1-4.7-4.7l0,0l0,0
						c0-2.6,2.1-4.7,4.7-4.7l0,0C522.6,304.9,524.7,307,524.7,309.6z M562.2,309.6c0,2.6-2,4.6-4.6,4.7c0,0-0.1,0-0.1,0l0,0
						c-1.2,0-2.4-0.5-3.3-1.4c-0.9-0.9-1.4-2.1-1.4-3.3l0,0c0-1.2,0.5-2.4,1.4-3.3c0.9-0.9,2.1-1.4,3.3-1.4l0,0
						C560.1,304.9,562.2,307,562.2,309.6C562.2,309.6,562.2,309.6,562.2,309.6L562.2,309.6z M580.9,309.6c0,2.6-2.1,4.7-4.7,4.7
						c0,0,0,0,0,0l0,0c-2.6,0-4.7-2.1-4.7-4.7l0,0l0,0c0-2.6,2.1-4.7,4.7-4.7l0,0C578.8,304.9,580.9,307,580.9,309.6
						C580.9,309.6,580.9,309.6,580.9,309.6z M599.6,309.6c0,1.2-0.5,2.4-1.4,3.3c-0.9,0.9-2.1,1.4-3.3,1.4l0,0
						c-2.6,0-4.7-2.1-4.7-4.6c0,0,0,0,0,0l0,0c0-1.2,0.5-2.4,1.4-3.3c0.9-0.9,2.1-1.4,3.3-1.4l0,0c1.2,0,2.4,0.5,3.3,1.4
						C599.1,307.1,599.6,308.3,599.6,309.6L599.6,309.6z M543.5,309.6c0,1.2-0.5,2.4-1.4,3.3c-0.9,0.9-2.1,1.4-3.3,1.4l0,0
						c-2.6,0-4.7-2.1-4.7-4.6c0,0,0,0,0,0l0,0c0-2.6,2.1-4.7,4.7-4.7l0,0l0,0c1.2,0,2.4,0.5,3.3,1.4
						C543,307.2,543.5,308.4,543.5,309.6L543.5,309.6z M524.6,290.9c0,2.6-2.1,4.7-4.7,4.7l0,0c-1.2,0-2.4-0.5-3.3-1.4
						c-0.9-0.9-1.4-2.1-1.4-3.3l0,0c0-2.6,2.1-4.7,4.6-4.7c0,0,0,0,0,0l0,0C522.5,286.3,524.6,288.4,524.6,290.9L524.6,290.9z
						 M524.6,272.2c0,1.2-0.5,2.4-1.4,3.3c-0.9,0.9-2.1,1.4-3.3,1.4l0,0c-2.6,0-4.7-2.1-4.7-4.7c0,0,0,0,0,0l0,0
						c0-2.6,2.1-4.7,4.7-4.7l0,0l0,0C522.5,267.5,524.6,269.6,524.6,272.2z M515.3,253.1H421c-0.7,0-1.4-0.2-2-0.5
						c-1.3-0.6-2.2-1.8-2.5-3.2c-0.1-0.3-0.1-0.7-0.1-1v-61.1c0-0.8,0.2-1.5,0.5-2.2c0.5-1,1.4-1.8,2.5-2.2c0.7-0.3,1.5-0.4,2.2-0.3
						l1.1,0.3c1.4,0.6,2.4,1.8,2.8,3.2c0.1,0.4,0.1,0.7,0.1,1.1v56.4H520l1,0.1c2.1,0.5,3.6,2.4,3.6,4.6v3.9v0.4c0,0.2,0,0.5,0,0.7
						l0,0c0,1.2-0.5,2.4-1.4,3.3c-0.9,0.9-2.1,1.4-3.3,1.4l0,0c-2.6,0-4.6-2-4.7-4.6c0,0,0-0.1,0-0.1l0,0V253L515.3,253.1z" class="st19"></path>
					
						<linearGradient gradientTransform="matrix(0 60.05 -40.27 0 -7438.6562 40655.8477)" y2="-195.1733" x2="-673.7079" y1="-195.1733" x1="-674.3278" gradientUnits="userSpaceOnUse" id="SVGID_13_">
						<stop style="stop-color:#FF5252" offset="0"></stop>
						<stop style="stop-color:#F10D5A" offset="1"></stop>
					</linearGradient>
					<circle r="19.7" cy="182.3" cx="421" class="st20"></circle>
					
						<linearGradient gradientTransform="matrix(0 36.73 -27.81 0 -5015.2021 24755.2871)" y2="-195.4756" x2="-668.7068" y1="-195.4756" x1="-669.3266" gradientUnits="userSpaceOnUse" id="SVGID_14_">
						<stop style="stop-color:#FFFFFF" offset="0"></stop>
						<stop style="stop-color:#E6F7FF" offset="1"></stop>
					</linearGradient>
					<circle r="11.2" cy="182.3" cx="421" class="st21"></circle>
					
						<linearGradient gradientTransform="matrix(0 180.72 -80.75 0 -15199.9111 122919.7969)" y2="-194.6734" x2="-678.8743" y1="-194.6734" x1="-679.494" gradientUnits="userSpaceOnUse" id="SVGID_15_">
						<stop style="stop-color:#FFC44C" offset="0"></stop>
						<stop style="stop-color:#FF8618" offset="1"></stop>
					</linearGradient>
					<path d="M517.4,228.3c-4.4-5-8.2-9.7-11.5-14.1c-3.3-4.4-6.6-9.2-9.9-14.5c-3.5-5.5-6.5-11.4-9-17.4
						c-2.5-5.7-4.1-11.8-4.9-18c-0.2-1.7-0.2-3.3-0.2-4.9c0.5-21,17.9-37.7,39-37.2c20.4,0.5,36.8,16.9,37.2,37.2c0,1.4,0,3-0.2,4.7
						c-0.8,6.3-2.5,12.4-5,18.2c-2.5,5.9-5.3,11.6-8.6,17.1c-3,4.9-6.4,9.9-10.1,14.9c-3.8,5-6.3,8.4-7.7,10.1
						c-1.4,1.7-2.6,3-3.4,3.9c-0.5,0.6-1,1.1-1.7,1.5c-0.7,0.3-1.4,0.3-2.1,0C518.5,229.4,518,228.9,517.4,228.3L517.4,228.3z" class="st22"></path>
					
						<linearGradient gradientTransform="matrix(0 64.07 -48.3 0 -8862.542 43358.8633)" y2="-194.2546" x2="-673.9543" y1="-194.2546" x1="-674.5741" gradientUnits="userSpaceOnUse" id="SVGID_16_">
						<stop style="stop-color:#FFFFFF" offset="0"></stop>
						<stop style="stop-color:#E6F7FF" offset="1"></stop>
					</linearGradient>
					<path d="M500.6,159.5c-0.1,5.2,2,10.1,5.7,13.7c7.5,7.6,19.8,7.6,27.4,0.1c0,0,0,0,0.1-0.1
						c7.5-7.6,7.5-19.9,0-27.5c-7.5-7.6-19.8-7.6-27.4-0.1c0,0,0,0-0.1,0.1C502.5,149.3,500.5,154.3,500.6,159.5L500.6,159.5z" class="st23"></path>
					
						<linearGradient gradientTransform="matrix(0 63.02 -130.31 0 -24708.2832 42882.957)" y2="-194.4487" x2="-675.247" y1="-194.4487" x1="-675.8667" gradientUnits="userSpaceOnUse" id="SVGID_17_">
						<stop style="stop-color:#B5FC4C" offset="0"></stop>
						<stop style="stop-color:#00BC64" offset="1"></stop>
					</linearGradient>
					<circle r="19.7" cy="308.3" cx="630.3" class="st24"></circle>
					
						<linearGradient gradientTransform="matrix(0 36.73 -27.81 0 -4679.7334 24957.1172)" y2="-190.9408" x2="-670.7642" y1="-190.9408" x1="-671.4033" gradientUnits="userSpaceOnUse" id="SVGID_18_">
						<stop style="stop-color:#FFFFFF" offset="0"></stop>
						<stop style="stop-color:#E6F7FF" offset="1"></stop>
					</linearGradient>
					<circle r="11.2" cy="308.3" cx="630.3" class="st25"></circle>
				</g>
				<path d="M559.4,66.7c0-2.9-2.3-5.2-5.2-5.2c0,0-0.1,0-0.1,0h-68.3c-2.9,0-5.3,2.3-5.3,5.2c0,0,0,0,0,0
					l0,0c0,2.9,2.3,5.2,5.2,5.2c0,0,0,0,0,0h68.3C557,71.9,559.3,69.6,559.4,66.7L559.4,66.7z" class="st26" id="list"></path>
			</g>
			
				<linearGradient gradientTransform="matrix(0 1042.6 -919.69 0 -179457.125 711342.625)" y2="-195.6294" x2="-681.3187" y1="-195.6294" x1="-681.9578" gradientUnits="userSpaceOnUse" id="Hand-Front_1_">
				<stop style="stop-color:#FFBEAE" offset="0"></stop>
				<stop style="stop-color:#FFB39F" offset="0.46"></stop>
				<stop style="stop-color:#FF9678" offset="1"></stop>
			</linearGradient>
			<path d="M315.4,616.1l89.1-89.1c16.4-16.4,38.7-25.6,61.9-25.6h109.1c17.5,0,31.7,14.2,31.8,31.7
				c0,1.8-0.2,3.6-0.5,5.4c-0.5,3-1,6-1.5,8.7c-1.9,11-9.3,20.1-19.7,24.2l-94.9,37.3l-54.1,119v55.4H315.4V616.1z" class="st27" id="Hand-Front"></path>
		</g>
	</g>
</g>
</svg>
